<svg xmlns="http://www.w3.org/2000/svg" viewBox="0 0 81.11 100"><defs><style>.cls-1{fill:#a90533;}.cls-2{fill:#fff;}</style></defs><g id="Layer_2" data-name="Layer 2"><g id="Layer_1-2" data-name="Layer 1"><path class="cls-1" d="M55.17,84.72,40.56,95.13,26,84.72C15.58,77.63,6.68,71.54,2,62.3,5.87,79.63,22.81,86.11,40.56,100c17.76-13.89,34.7-20.37,38.55-37.7C74.45,71.54,65.55,77.63,55.17,84.72Z"/><path class="cls-1" d="M0,0V1.82c1.13.39,1.5.74,1.62,2.39V46.09c0,23.3,19,29.45,39,45.1,20-15.65,39-21.8,39-45.1V3.75a1.87,1.87,0,0,1,1.57-1.93V0Z"/><path class="cls-2" d="M48.46,68.18s3.24-1.38,5-6.74a13.23,13.23,0,0,1,1.14,6.62A42.05,42.05,0,0,1,48.46,68.18Z"/><path class="cls-2" d="M65.86,37.54s2,10.76-5,11.13c-6.74.35-9.93-9.8-9.93-9.8S52.54,58.72,62,57.41C72.66,55.94,65.86,37.54,65.86,37.54Z"/><path class="cls-2" d="M14.46,65.62h0c7.9-1.8,13.94-11,15.71-14.71l1.13-2.35L32,51.07a27.92,27.92,0,0,1,.77,6.55c0,.41,0,.83,0,1.24,2.72.1,4.66-.44,5.87-1.7,1.73-1.8,2.26-5.19,1.6-10.38-.31-2.49-1.23-6.45-2-9.93-.42-1.79-.81-3.47-1-4.66-1.52-7.64.37-12.37,2.22-15,.29-.41.61-.8.94-1.18a36.77,36.77,0,0,0-14.76,9.42l3.32,3.86L30.19,28a22.1,22.1,0,0,1,.36,9.19,37.7,37.7,0,0,0-3.81-4.82l.91-1.52-3-3.48L24.3,27a32.9,32.9,0,0,0-4.87,9.21L22,38.59,23.57,40l.5-1.47a11.59,11.59,0,0,1,.25,10.18A18.78,18.78,0,0,0,22,44.24l.73-2.41L18.85,38.3C14.81,50.94,9.4,55,9.4,55a86.06,86.06,0,0,0,9.1-2.15A26.58,26.58,0,0,1,14.46,65.62Z"/><path class="cls-2" d="M73.45,20l-9.34.39a9.55,9.55,0,0,1-.5,3.27,12.79,12.79,0,0,1,.28,5.88c-1.57-3.64-2.76-4.64-2.76-4.64-8.57-3.82-13.39,4.8-12.87,10.36.42,4.57,2.07,10.63,3.37,20.13,1.09,8-3,11.46-7.63,12.26l-.3,0h-.07a15.6,15.6,0,0,1-2.41.11h-.36c-.37,0-.73-.06-1.09-.11a165.41,165.41,0,0,0-20.12-2.18c4.93-2.88,8.79-7.86,10.94-11.4a26.83,26.83,0,0,1,.23,3.49c0,.66,0,1.34-.09,2.05l-.08,1,1,.09c3.86.33,6.61-.4,8.38-2.25,2.2-2.28,2.87-6.08,2.13-12-.32-2.58-1.26-6.59-2.07-10.12-.42-1.77-.81-3.44-1-4.61-1.39-6.95.26-11.17,1.9-13.49a10.06,10.06,0,0,1,5-3.79H46l3.19-9.79h1L48,14.12c.5-.09,1-.17,1.52-.24L52.3,5.2h1l-1.8,8.4c2.85-.36,5.94-.65,9.36-.9a4.15,4.15,0,0,1,1.69,1.76l9-2.77.33,1L63.27,16c.07.17.12.36.19.54l9.39-1.17.16,1L63.89,18.2a4.88,4.88,0,0,1,.08.51l9.49.31ZM46.4,24.23a13.44,13.44,0,0,1,8.09-2.1c.77.06,1.41-.14.59-.58-2.25-1.18-7.49-.78-9.34.49a5.92,5.92,0,0,0-2.4,5.71A11.18,11.18,0,0,1,46.4,24.23Z"/></g></g></svg>