<svg xmlns="http://www.w3.org/2000/svg" viewBox="0 0 107.18 121.66">
    <g id="Layer_2" data-name="Layer 2">
        <g id="Layer_1-2" data-name="Layer 1">
            <path id="handshake-icon" d="M8,121.66H7.94a9.63,9.63,0,0,1-2.3-.49,8.84,8.84,0,0,1-5.1-5.81,8.79,8.79,0,0,1-.31-3.61,4.53,4.53,0,0,0,0-.64q0-10.68,0-21.36c0-1.17-.19-2.33-.23-3.5,0-.81,0-1.61,0-2.42Q0,66.66,0,49.49a4.9,4.9,0,0,1,.33-2.24,4.5,4.5,0,0,1,2-2,20.15,20.15,0,0,1,7.31-2.18,37.76,37.76,0,0,1,4.51-.25,62.33,62.33,0,0,1,14.33,1.65c2,.48,4.07,1.06,6.08,1.68A15.17,15.17,0,0,1,38.21,48c2.1,1.33,4.08,2.83,6.1,4.28A53.84,53.84,0,0,0,53,57.55a19,19,0,0,0,8,1.91c1.67,0,3.34.21,5,.15a20.91,20.91,0,0,0,6.51-1c.92-.33,1.79-.77,2.67-1.18a55.27,55.27,0,0,1,6.39-2.73,23.29,23.29,0,0,1,4.6-.92,45.33,45.33,0,0,1,6.69-.38,30.11,30.11,0,0,1,10.53,2,6.11,6.11,0,0,1,3.4,3,6.09,6.09,0,0,1,.36,2.46V80.11c0,.89,0,1.79,0,2.68a.86.86,0,0,0,0,.45V93.58c-.1.82,0,1.65-.05,2.48v17c.26,4.4-3.3,7.57-6.67,8.36a7.7,7.7,0,0,1-1.59.13c-6.94,0-13.87,0-20.8,0a8.13,8.13,0,0,1-7.24-4.27,8.29,8.29,0,0,1-1.17-4.54c0-1.56,0-3.14,0-4.7-.08-4.59-.06-9.18-.11-13.76,0-1.65,0-3.29-.08-4.93-.09-2-.09-4-.19-6-.09-1.7-.08-3.41-.27-5.1a9.25,9.25,0,0,0-2.5-5.51A15.85,15.85,0,0,0,61,69.08a42.82,42.82,0,0,0-9.11-2.49,25,25,0,0,0-4.57-.53c-1.25,0-1.74.47-1.83,1.71,0,.15,0,.31,0,.46,0,.88,0,1.77,0,2.65.06,7.33-.08,14.66-.12,22,0,3.47,0,6.95-.08,10.42-.11,2.92,0,5.85-.08,8.77a10.21,10.21,0,0,1-1,4.91,9.31,9.31,0,0,1-4.83,4.32,10.05,10.05,0,0,1-2.1.37H8.58A.75.75,0,0,0,8,121.66Z" />
            <path id="handshake-icon" d="M19.13,37.47A18.74,18.74,0,1,1,37.85,18.71,18.76,18.76,0,0,1,19.13,37.47Z" />
            <path id="handshake-icon" d="M73.1,30.37A16.91,16.91,0,1,1,90,47.29,16.93,16.93,0,0,1,73.1,30.37Z" />
        </g>
    </g>
</svg>